<mxfile host="app.diagrams.net" modified="2025-03-03T00:50:03.681Z" agent="Mozilla/5.0 (Windows NT 10.0; Win64; x64) AppleWebKit/537.36 (KHTML, like Gecko) Chrome/133.0.0.0 Safari/537.36" etag="cm5Qda1A0V076BvY5s8J" version="23.1.8" type="device">
  <diagram name="PÃ¡gina-1" id="O193fwPSjZwJlV1i7irO">
    <mxGraphModel dx="1050" dy="522" grid="1" gridSize="10" guides="1" tooltips="1" connect="1" arrows="1" fold="1" page="1" pageScale="1" pageWidth="827" pageHeight="1169" math="0" shadow="0">
      <root>
        <mxCell id="0" />
        <mxCell id="1" parent="0" />
        <mxCell id="k8QF8k5HvRPFbdPl00h_-6" style="edgeStyle=orthogonalEdgeStyle;rounded=0;orthogonalLoop=1;jettySize=auto;html=1;entryX=0.5;entryY=0;entryDx=0;entryDy=0;" edge="1" parent="1" source="k8QF8k5HvRPFbdPl00h_-1" target="k8QF8k5HvRPFbdPl00h_-2">
          <mxGeometry relative="1" as="geometry" />
        </mxCell>
        <mxCell id="k8QF8k5HvRPFbdPl00h_-7" style="edgeStyle=orthogonalEdgeStyle;rounded=0;orthogonalLoop=1;jettySize=auto;html=1;entryX=0.5;entryY=0;entryDx=0;entryDy=0;" edge="1" parent="1" source="k8QF8k5HvRPFbdPl00h_-1" target="k8QF8k5HvRPFbdPl00h_-3">
          <mxGeometry relative="1" as="geometry" />
        </mxCell>
        <mxCell id="k8QF8k5HvRPFbdPl00h_-1" value="Actor" style="shape=umlActor;verticalLabelPosition=bottom;verticalAlign=top;html=1;outlineConnect=0;" vertex="1" parent="1">
          <mxGeometry x="390" y="20" width="30" height="60" as="geometry" />
        </mxCell>
        <mxCell id="k8QF8k5HvRPFbdPl00h_-2" value="Spring-Boot&lt;br&gt;Service" style="rounded=0;whiteSpace=wrap;html=1;" vertex="1" parent="1">
          <mxGeometry x="170" y="200" width="120" height="60" as="geometry" />
        </mxCell>
        <mxCell id="k8QF8k5HvRPFbdPl00h_-3" value="Quarkus&lt;br&gt;Service" style="rounded=0;whiteSpace=wrap;html=1;" vertex="1" parent="1">
          <mxGeometry x="520" y="200" width="120" height="60" as="geometry" />
        </mxCell>
        <mxCell id="k8QF8k5HvRPFbdPl00h_-12" style="edgeStyle=orthogonalEdgeStyle;rounded=0;orthogonalLoop=1;jettySize=auto;html=1;entryX=0;entryY=0.5;entryDx=0;entryDy=0;dashed=1;dashPattern=8 8;" edge="1" parent="1" source="k8QF8k5HvRPFbdPl00h_-4" target="k8QF8k5HvRPFbdPl00h_-11">
          <mxGeometry relative="1" as="geometry" />
        </mxCell>
        <mxCell id="k8QF8k5HvRPFbdPl00h_-4" value="Mini cluster" style="swimlane;whiteSpace=wrap;html=1;" vertex="1" parent="1">
          <mxGeometry x="120" y="130" width="570" height="180" as="geometry" />
        </mxCell>
        <mxCell id="k8QF8k5HvRPFbdPl00h_-8" value="DB" style="shape=cylinder3;whiteSpace=wrap;html=1;boundedLbl=1;backgroundOutline=1;size=15;" vertex="1" parent="1">
          <mxGeometry x="375" y="370" width="60" height="80" as="geometry" />
        </mxCell>
        <mxCell id="k8QF8k5HvRPFbdPl00h_-9" style="edgeStyle=orthogonalEdgeStyle;rounded=0;orthogonalLoop=1;jettySize=auto;html=1;entryX=0.145;entryY=0;entryDx=0;entryDy=4.35;entryPerimeter=0;" edge="1" parent="1" source="k8QF8k5HvRPFbdPl00h_-2" target="k8QF8k5HvRPFbdPl00h_-8">
          <mxGeometry relative="1" as="geometry" />
        </mxCell>
        <mxCell id="k8QF8k5HvRPFbdPl00h_-10" style="edgeStyle=orthogonalEdgeStyle;rounded=0;orthogonalLoop=1;jettySize=auto;html=1;entryX=0.855;entryY=0;entryDx=0;entryDy=4.35;entryPerimeter=0;" edge="1" parent="1" source="k8QF8k5HvRPFbdPl00h_-3" target="k8QF8k5HvRPFbdPl00h_-8">
          <mxGeometry relative="1" as="geometry" />
        </mxCell>
        <mxCell id="k8QF8k5HvRPFbdPl00h_-11" value="Ferramenta de monitoramento" style="shape=process;whiteSpace=wrap;html=1;backgroundOutline=1;" vertex="1" parent="1">
          <mxGeometry x="750" y="55" width="120" height="330" as="geometry" />
        </mxCell>
      </root>
    </mxGraphModel>
  </diagram>
</mxfile>
